<svg xmlns="http://www.w3.org/2000/svg" viewBox="0 0 1410.20524141 839.30806752" width="1410.20524141" height="839.30806752" filter="invert(93%) hue-rotate(180deg)">
  <defs>
    <style>
      @font-face{font-family:&quot;Virgil&quot;;src:url(https://excalidraw.com/Virgil.woff2)}@font-face{font-family:&quot;Cascadia&quot;;src:url(https://excalidraw.com/Cascadia.woff2)}@font-face{font-family:&quot;Assistant&quot;;src:url(https://excalidraw.com/Assistant-Regular.woff2)}
    </style>
  </defs>
  <path d="M34.75 368.92208868h92.32m-92.32 0h92.32m0 0c16.5 0 24.75 8.25 24.75 24.75m-24.75-24.75c16.5 0 24.75 8.25 24.75 24.75m0 0v49.5m0-49.5v49.5m0 0c0 16.5-8.25 24.75-24.75 24.75m24.75-24.75c0 16.5-8.25 24.75-24.75 24.75m0 0H34.75m92.32 0H34.75m0 0c-16.5 0-24.75-8.25-24.75-24.75m24.75 24.75c-16.5 0-24.75-8.25-24.75-24.75m0 0v-49.5m0 49.5v-49.5m0 0c0-16.5 8.25-24.75 24.75-24.75m-24.75 24.75c0-16.5 8.25-24.75 24.75-24.75" stroke="#1e1e1e" stroke-width="2" fill="none" stroke-linecap="round"/>
  <text x="32.67499924" y="25.76054687" font-family="Helvetica, Segoe UI Emoji" font-size="28" fill="#1e1e1e" text-anchor="middle" style="white-space:pre" dominant-baseline="alphabetic" transform="translate(48.23409167 402.32208868)">client</text>
  <path d="M324.2898481 368.92208868h107.77m-107.77 0h107.77m0 0c16.5 0 24.75 8.25 24.75 24.75m-24.75-24.75c16.5 0 24.75 8.25 24.75 24.75m0 0v49.5m0-49.5v49.5m0 0c0 16.5-8.25 24.75-24.75 24.75m24.75-24.75c0 16.5-8.25 24.75-24.75 24.75m0 0h-107.77m107.77 0h-107.77m0 0c-16.5 0-24.75-8.25-24.75-24.75m24.75 24.75c-16.5 0-24.75-8.25-24.75-24.75m0 0v-49.5m0 49.5v-49.5m0 0c0-16.5 8.25-24.75 24.75-24.75m-24.75 24.75c0-16.5 8.25-24.75 24.75-24.75" stroke="#1e1e1e" stroke-width="2" fill="none" stroke-linecap="round"/>
  <text x="42.77500153" y="25.76054687" font-family="Helvetica, Segoe UI Emoji" font-size="28" fill="#1e1e1e" text-anchor="middle" style="white-space:pre" dominant-baseline="alphabetic" transform="translate(335.4012102 402.32208868)">master</text>
  <path d="M629.2842411 88.46682737h153.23m-153.23 0h153.23m0 0c16.5 0 24.75 8.25 24.75 24.75m-24.75-24.75c16.5 0 24.75 8.25 24.75 24.75m0 0v49.5m0-49.5v49.5m0 0c0 16.5-8.25 24.75-24.75 24.75m24.75-24.75c0 16.5-8.25 24.75-24.75 24.75m0 0h-153.23m153.23 0h-153.23m0 0c-16.5 0-24.75-8.25-24.75-24.75m24.75 24.75c-16.5 0-24.75-8.25-24.75-24.75m0 0v-49.5m0 49.5v-49.5m0 0c0-16.5 8.25-24.75 24.75-24.75m-24.75 24.75c0-16.5 8.25-24.75 24.75-24.75" stroke="#1e1e1e" stroke-width="2" fill="none" stroke-linecap="round"/>
  <text x="76.23332977" y="25.76054687" font-family="Helvetica, Segoe UI Emoji" font-size="28" fill="#1e1e1e" text-anchor="middle" style="white-space:pre" dominant-baseline="alphabetic" transform="translate(629.66454766 121.86682737)">chunkserver</text>
  <g stroke-linecap="round">
    <path d="M956.17279284 193.84830292h195.33c12.01 0 18.02 6.01 18.02 18.02v36.04c0 12.02-6.01 18.03-18.02 18.03h-195.33c-12.01 0-18.02-6.01-18.02-18.03v-36.04c0-12.01 6.01-18.02 18.02-18.02" stroke-width="0" fill="#a5d8ff"/>
    <path d="M956.17279284 193.84830292h195.33m-195.33 0h195.33m0 0c12.01 0 18.02 6.01 18.02 18.02m-18.02-18.02c12.01 0 18.02 6.01 18.02 18.02m0 0v36.04m0-36.04v36.04m0 0c0 12.02-6.01 18.03-18.02 18.03m18.02-18.03c0 12.02-6.01 18.03-18.02 18.03m0 0h-195.33m195.33 0h-195.33m0 0c-12.01 0-18.02-6.01-18.02-18.03m18.02 18.03c-12.01 0-18.02-6.01-18.02-18.03m0 0v-36.04m0 36.04v-36.04m0 0c0-12.01 6.01-18.02 18.02-18.02m-18.02 18.02c0-12.01 6.01-18.02 18.02-18.02" stroke="#1e1e1e" stroke-width="2" fill="none"/>
  </g>
  <text x="91.03333282" y="25.76054687" font-family="Helvetica, Segoe UI Emoji" font-size="28" fill="#1e1e1e" text-anchor="middle" style="white-space:pre" dominant-baseline="alphabetic" transform="translate(962.80493585 213.79097925)">file 2 - chunk 1</text>
  <g stroke-linecap="round">
    <path d="M956.17279272 101.92415121h195.33c12.01 0 18.02 6.01 18.02 18.02v36.04c0 12.02-6.01 18.03-18.02 18.03h-195.33c-12.01 0-18.02-6.01-18.02-18.03v-36.04c0-12.01 6.01-18.02 18.02-18.02" stroke-width="0" fill="#b2f2bb"/>
    <path d="M956.17279272 101.92415121h195.33m-195.33 0h195.33m0 0c12.01 0 18.02 6.01 18.02 18.02m-18.02-18.02c12.01 0 18.02 6.01 18.02 18.02m0 0v36.04m0-36.04v36.04m0 0c0 12.02-6.01 18.03-18.02 18.03m18.02-18.03c0 12.02-6.01 18.03-18.02 18.03m0 0h-195.33m195.33 0h-195.33m0 0c-12.01 0-18.02-6.01-18.02-18.03m18.02 18.03c-12.01 0-18.02-6.01-18.02-18.03m0 0v-36.04m0 36.04v-36.04m0 0c0-12.01 6.01-18.02 18.02-18.02m-18.02 18.02c0-12.01 6.01-18.02 18.02-18.02" stroke="#1e1e1e" stroke-width="2" fill="none"/>
  </g>
  <text x="91.03333282" y="25.76054687" font-family="Helvetica, Segoe UI Emoji" font-size="28" fill="#1e1e1e" text-anchor="middle" style="white-space:pre" dominant-baseline="alphabetic" transform="translate(962.80493573 121.86682755)">file 1 - chunk 2</text>
  <g stroke-linecap="round">
    <path d="M956.17279333 10h195.33c12.01 0 18.02 6.01 18.02 18.02v36.04c0 12.02-6.01 18.03-18.02 18.03h-195.33c-12.01 0-18.02-6.01-18.02-18.03V28.02c0-12.01 6.01-18.02 18.02-18.02" stroke-width="0" fill="#ffc9c9"/>
    <path d="M956.17279333 10h195.33m-195.33 0h195.33m0 0c12.01 0 18.02 6.01 18.02 18.02m-18.02-18.02c12.01 0 18.02 6.01 18.02 18.02m0 0v36.04m0-36.04v36.04m0 0c0 12.02-6.01 18.03-18.02 18.03m18.02-18.03c0 12.02-6.01 18.03-18.02 18.03m0 0h-195.33m195.33 0h-195.33m0 0c-12.01 0-18.02-6.01-18.02-18.03m18.02 18.03c-12.01 0-18.02-6.01-18.02-18.03m0 0V28.02m0 36.04V28.02m0 0c0-12.01 6.01-18.02 18.02-18.02m-18.02 18.02c0-12.01 6.01-18.02 18.02-18.02" stroke="#1e1e1e" stroke-width="2" fill="none"/>
  </g>
  <text x="91.03333282" y="25.76054687" font-family="Helvetica, Segoe UI Emoji" font-size="28" fill="#1e1e1e" text-anchor="middle" style="white-space:pre" dominant-baseline="alphabetic" transform="translate(962.80493634 29.94267633)">file 1 - chunk 1</text>
  <path d="M808.73642116 139.4650732c21.37-15.68 106.87-78.41 128.25-94.09m-128.25 94.09c21.37-15.68 106.87-78.41 128.25-94.09M807.2615141 138.8657842h131.52m-131.52 0h131.52M808.13713216 139.4650732c21.67 15.48 108.37 77.41 130.05 92.89m-130.05-92.89c21.67 15.48 108.37 77.41 130.05 92.89M629.28424084 368.79903265h153.23m-153.23 0h153.23m0 0c16.5 0 24.75 8.25 24.75 24.75m-24.75-24.75c16.5 0 24.75 8.25 24.75 24.75m0 0v49.5m0-49.5v49.5m0 0c0 16.5-8.25 24.75-24.75 24.75m24.75-24.75c0 16.5-8.25 24.75-24.75 24.75m0 0h-153.23m153.23 0h-153.23m0 0c-16.5 0-24.75-8.25-24.75-24.75m24.75 24.75c-16.5 0-24.75-8.25-24.75-24.75m0 0v-49.5m0 49.5v-49.5m0 0c0-16.5 8.25-24.75 24.75-24.75m-24.75 24.75c0-16.5 8.25-24.75 24.75-24.75" stroke="#1e1e1e" stroke-width="2" fill="none" stroke-linecap="round"/>
  <text x="76.23332977" y="25.76054687" font-family="Helvetica, Segoe UI Emoji" font-size="28" fill="#1e1e1e" text-anchor="middle" style="white-space:pre" dominant-baseline="alphabetic" transform="translate(629.66454742 402.19903265)">chunkserver</text>
  <g stroke-linecap="round">
    <path d="M956.17279259 474.1805082h195.33c12.01 0 18.02 6.01 18.02 18.02v36.04c0 12.02-6.01 18.03-18.02 18.03h-195.33c-12.01 0-18.02-6.01-18.02-18.03v-36.04c0-12.01 6.01-18.02 18.02-18.02" stroke-width="0" fill="#ffec99"/>
    <path d="M956.17279259 474.1805082h195.33m-195.33 0h195.33m0 0c12.01 0 18.02 6.01 18.02 18.02m-18.02-18.02c12.01 0 18.02 6.01 18.02 18.02m0 0v36.04m0-36.04v36.04m0 0c0 12.02-6.01 18.03-18.02 18.03m18.02-18.03c0 12.02-6.01 18.03-18.02 18.03m0 0h-195.33m195.33 0h-195.33m0 0c-12.01 0-18.02-6.01-18.02-18.03m18.02 18.03c-12.01 0-18.02-6.01-18.02-18.03m0 0v-36.04m0 36.04v-36.04m0 0c0-12.01 6.01-18.02 18.02-18.02m-18.02 18.02c0-12.01 6.01-18.02 18.02-18.02" stroke="#1e1e1e" stroke-width="2" fill="none"/>
  </g>
  <text x="91.03333282" y="25.76054687" font-family="Helvetica, Segoe UI Emoji" font-size="28" fill="#1e1e1e" text-anchor="middle" style="white-space:pre" dominant-baseline="alphabetic" transform="translate(962.8049356 494.12318454)">file 2 - chunk 2</text>
  <g stroke-linecap="round">
    <path d="M956.17279247 382.2563565h195.33c12.01 0 18.02 6.01 18.02 18.02v36.04c0 12.02-6.01 18.03-18.02 18.03h-195.33c-12.01 0-18.02-6.01-18.02-18.03v-36.04c0-12.01 6.01-18.02 18.02-18.02" stroke-width="0" fill="#ffc9c9"/>
    <path d="M956.17279247 382.2563565h195.33m-195.33 0h195.33m0 0c12.01 0 18.02 6.01 18.02 18.02m-18.02-18.02c12.01 0 18.02 6.01 18.02 18.02m0 0v36.04m0-36.04v36.04m0 0c0 12.02-6.01 18.03-18.02 18.03m18.02-18.03c0 12.02-6.01 18.03-18.02 18.03m0 0h-195.33m195.33 0h-195.33m0 0c-12.01 0-18.02-6.01-18.02-18.03m18.02 18.03c-12.01 0-18.02-6.01-18.02-18.03m0 0v-36.04m0 36.04v-36.04m0 0c0-12.01 6.01-18.02 18.02-18.02m-18.02 18.02c0-12.01 6.01-18.02 18.02-18.02" stroke="#1e1e1e" stroke-width="2" fill="none"/>
  </g>
  <text x="91.03333282" y="25.76054687" font-family="Helvetica, Segoe UI Emoji" font-size="28" fill="#1e1e1e" text-anchor="middle" style="white-space:pre" dominant-baseline="alphabetic" transform="translate(962.80493548 402.19903283)">file 1 - chunk 1</text>
  <g stroke-linecap="round">
    <path d="M956.17279208 289.66622828h195.33c12.01 0 18.02 6.01 18.02 18.02v36.04c0 12.02-6.01 18.03-18.02 18.03h-195.33c-12.01 0-18.02-6.01-18.02-18.03v-36.04c0-12.01 6.01-18.02 18.02-18.02" stroke-width="0" fill="#b2f2bb"/>
    <path d="M956.17279208 289.66622828h195.33m-195.33 0h195.33m0 0c12.01 0 18.02 6.01 18.02 18.02m-18.02-18.02c12.01 0 18.02 6.01 18.02 18.02m0 0v36.04m0-36.04v36.04m0 0c0 12.02-6.01 18.03-18.02 18.03m18.02-18.03c0 12.02-6.01 18.03-18.02 18.03m0 0h-195.33m195.33 0h-195.33m0 0c-12.01 0-18.02-6.01-18.02-18.03m18.02 18.03c-12.01 0-18.02-6.01-18.02-18.03m0 0v-36.04m0 36.04v-36.04m0 0c0-12.01 6.01-18.02 18.02-18.02m-18.02 18.02c0-12.01 6.01-18.02 18.02-18.02" stroke="#1e1e1e" stroke-width="2" fill="none"/>
  </g>
  <text x="91.03333282" y="25.76054687" font-family="Helvetica, Segoe UI Emoji" font-size="28" fill="#1e1e1e" text-anchor="middle" style="white-space:pre" dominant-baseline="alphabetic" transform="translate(962.8049351 309.60890462)">file 1 - chunk 2</text>
  <path d="M808.73642091 419.79727849c21.37-15.68 106.87-78.41 128.25-94.09m-128.25 94.09c21.37-15.68 106.87-78.41 128.25-94.09M807.26151384 419.19798948h131.52m-131.52 0h131.52M808.13713191 419.79727849c21.67 15.48 108.37 77.41 130.05 92.89m-130.05-92.89c21.67 15.48 108.37 77.41 130.05 92.89M629.2842412 649.3773493h153.23m-153.23 0h153.23m0 0c16.5 0 24.75 8.25 24.75 24.75m-24.75-24.75c16.5 0 24.75 8.25 24.75 24.75m0 0v49.5m0-49.5v49.5m0 0c0 16.5-8.25 24.75-24.75 24.75m24.75-24.75c0 16.5-8.25 24.75-24.75 24.75m0 0h-153.23m153.23 0h-153.23m0 0c-16.5 0-24.75-8.25-24.75-24.75m24.75 24.75c-16.5 0-24.75-8.25-24.75-24.75m0 0v-49.5m0 49.5v-49.5m0 0c0-16.5 8.25-24.75 24.75-24.75m-24.75 24.75c0-16.5 8.25-24.75 24.75-24.75" stroke="#1e1e1e" stroke-width="2" fill="none" stroke-linecap="round"/>
  <text x="76.23332977" y="25.76054687" font-family="Helvetica, Segoe UI Emoji" font-size="28" fill="#1e1e1e" text-anchor="middle" style="white-space:pre" dominant-baseline="alphabetic" transform="translate(629.66454777 682.7773493)">chunkserver</text>
  <g stroke-linecap="round">
    <path d="M956.17279294 757.22271485h195.33c12.01 0 18.02 6.01 18.02 18.02v36.04c0 12.02-6.01 18.03-18.02 18.03h-195.33c-12.01 0-18.02-6.01-18.02-18.03v-36.04c0-12.01 6.01-18.02 18.02-18.02" stroke-width="0" fill="#ffec99"/>
    <path d="M956.17279294 757.22271485h195.33m-195.33 0h195.33m0 0c12.01 0 18.02 6.01 18.02 18.02m-18.02-18.02c12.01 0 18.02 6.01 18.02 18.02m0 0v36.04m0-36.04v36.04m0 0c0 12.02-6.01 18.03-18.02 18.03m18.02-18.03c0 12.02-6.01 18.03-18.02 18.03m0 0h-195.33m195.33 0h-195.33m0 0c-12.01 0-18.02-6.01-18.02-18.03m18.02 18.03c-12.01 0-18.02-6.01-18.02-18.03m0 0v-36.04m0 36.04v-36.04m0 0c0-12.01 6.01-18.02 18.02-18.02m-18.02 18.02c0-12.01 6.01-18.02 18.02-18.02" stroke="#1e1e1e" stroke-width="2" fill="none"/>
  </g>
  <text x="91.03333282" y="25.76054687" font-family="Helvetica, Segoe UI Emoji" font-size="28" fill="#1e1e1e" text-anchor="middle" style="white-space:pre" dominant-baseline="alphabetic" transform="translate(962.80493595 777.16539118)">file 2 - chunk 2</text>
  <g stroke-linecap="round">
    <path d="M956.17279282 662.83467315h195.33c12.01 0 18.02 6.01 18.02 18.02v36.04c0 12.02-6.01 18.03-18.02 18.03h-195.33c-12.01 0-18.02-6.01-18.02-18.03v-36.04c0-12.01 6.01-18.02 18.02-18.02" stroke-width="0" fill="#a5d8ff"/>
    <path d="M956.17279282 662.83467315h195.33m-195.33 0h195.33m0 0c12.01 0 18.02 6.01 18.02 18.02m-18.02-18.02c12.01 0 18.02 6.01 18.02 18.02m0 0v36.04m0-36.04v36.04m0 0c0 12.02-6.01 18.03-18.02 18.03m18.02-18.03c0 12.02-6.01 18.03-18.02 18.03m0 0h-195.33m195.33 0h-195.33m0 0c-12.01 0-18.02-6.01-18.02-18.03m18.02 18.03c-12.01 0-18.02-6.01-18.02-18.03m0 0v-36.04m0 36.04v-36.04m0 0c0-12.01 6.01-18.02 18.02-18.02m-18.02 18.02c0-12.01 6.01-18.02 18.02-18.02" stroke="#1e1e1e" stroke-width="2" fill="none"/>
  </g>
  <text x="91.03333282" y="25.76054687" font-family="Helvetica, Segoe UI Emoji" font-size="28" fill="#1e1e1e" text-anchor="middle" style="white-space:pre" dominant-baseline="alphabetic" transform="translate(962.80493583 682.77734948)">file 2 - chunk 1</text>
  <g stroke-linecap="round">
    <path d="M956.17279343 570.91052193h195.33c12.01 0 18.02 6.01 18.02 18.02v36.04c0 12.02-6.01 18.03-18.02 18.03h-195.33c-12.01 0-18.02-6.01-18.02-18.03v-36.04c0-12.01 6.01-18.02 18.02-18.02" stroke-width="0" fill="#b2f2bb"/>
    <path d="M956.17279343 570.91052193h195.33m-195.33 0h195.33m0 0c12.01 0 18.02 6.01 18.02 18.02m-18.02-18.02c12.01 0 18.02 6.01 18.02 18.02m0 0v36.04m0-36.04v36.04m0 0c0 12.02-6.01 18.03-18.02 18.03m18.02-18.03c0 12.02-6.01 18.03-18.02 18.03m0 0h-195.33m195.33 0h-195.33m0 0c-12.01 0-18.02-6.01-18.02-18.03m18.02 18.03c-12.01 0-18.02-6.01-18.02-18.03m0 0v-36.04m0 36.04v-36.04m0 0c0-12.01 6.01-18.02 18.02-18.02m-18.02 18.02c0-12.01 6.01-18.02 18.02-18.02" stroke="#1e1e1e" stroke-width="2" fill="none"/>
  </g>
  <text x="91.03333282" y="25.76054687" font-family="Helvetica, Segoe UI Emoji" font-size="28" fill="#1e1e1e" text-anchor="middle" style="white-space:pre" dominant-baseline="alphabetic" transform="translate(962.80493644 590.85319827)">file 1 - chunk 2</text>
  <path d="M808.73642126 700.37559513c21.37-15.68 106.87-78.41 128.25-94.09m-128.25 94.09c21.37-15.68 106.87-78.41 128.25-94.09M807.2615142 699.77630613h131.52m-131.52 0h131.52M808.13713226 700.37559513c21.67 15.48 108.37 77.41 130.05 92.89m-130.05-92.89c21.67 15.48 108.37 77.41 130.05 92.89M457.8134831 420.45345366h146.46m-146.46 0h146.46M457.4350291 419.69654567c24.47-47.05 122.37-235.27 146.84-282.33m-146.84 282.33c24.47-47.05 122.37-235.27 146.84-282.33M457.8134831 420.45345337c24.47 47.05 122.37 235.27 146.84 282.33m-146.84-282.33c24.47 47.05 122.37 235.27 146.84 282.33" stroke="#1e1e1e" stroke-width="2" fill="none" stroke-linecap="round"/>
  <path d="M1169.41799407 137.23341863c12.43 47.01 62.16 235.05 74.59 282.06m-74.59-282.06c12.43 47.01 62.16 235.05 74.59 282.06M1169.41799407 325.88315868c12.4 15.57 61.99 77.84 74.39 93.41m-74.39-93.41c12.4 15.57 61.99 77.84 74.39 93.41" stroke="#2f9e44" stroke-width="2" fill="none" stroke-linecap="round"/>
  <text y="25.76054687" font-family="Helvetica, Segoe UI Emoji" font-size="28" fill="#2f9e44" style="white-space:pre" dominant-baseline="alphabetic" transform="translate(1253.92190095 402.500407)">redundancy</text>
  <path d="M1169.99512178 606.18543724c12.36-31.35 61.8-156.74 74.17-188.08m-74.17 188.08c12.36-31.35 61.8-156.74 74.17-188.08" stroke="#2f9e44" stroke-width="2" fill="none" stroke-linecap="round"/>
  <path d="M702.43405774 187.55106139v179.42m0-179.42v179.42M701.7886671 468.29599288v181.35m0-181.35v181.35" stroke="#1e1e1e" stroke-width="2" fill="none" stroke-linecap="round"/>
  <text y="18.40039063" font-family="Helvetica, Segoe UI Emoji" font-size="20" fill="#1e1e1e" style="white-space:pre" dominant-baseline="alphabetic" transform="translate(492.42090728 395.8426668)">HeartBeat</text>
  <text y="18.40039063" font-family="Helvetica, Segoe UI Emoji" font-size="20" fill="#1e1e1e" style="white-space:pre" dominant-baseline="alphabetic" transform="rotate(-62.928 498.73691722 -235.4275653)">HeartBeat</text>
  <text y="18.40039063" font-family="Helvetica, Segoe UI Emoji" font-size="20" fill="#1e1e1e" style="white-space:pre" dominant-baseline="alphabetic" transform="rotate(62.103 -178.42021899 672.3196634)">HeartBeat</text>
  <text y="18.40039063" font-family="Helvetica, Segoe UI Emoji" font-size="20" fill="#1e1e1e" style="white-space:pre" dominant-baseline="alphabetic" transform="rotate(-90 505.15354414 -167.3226581)">chunk data</text>
  <text y="18.40039063" font-family="Helvetica, Segoe UI Emoji" font-size="20" fill="#1e1e1e" style="white-space:pre" dominant-baseline="alphabetic" transform="rotate(-90 638.66949046 -33.80671179)">chunk data</text>
  <path d="M80.90909102 468.29599279c87.26 39.03 436.29 195.17 523.55 234.21m-523.55-234.21c87.26 39.03 436.29 195.17 523.55 234.21M80.98199512 368.92208838c87.26-39.03 436.29-195.17 523.55-234.21m-523.55 234.21c87.26-39.03 436.29-195.17 523.55-234.21M151.81818201 417.32072647h147.36m-147.36 0h147.36" stroke="#1e1e1e" stroke-width="2" fill="none" stroke-linecap="round"/>
  <text y="18.40039063" font-family="Helvetica, Segoe UI Emoji" font-size="20" fill="#1e1e1e" style="white-space:pre" dominant-baseline="alphabetic" transform="translate(183.5494053 391.60285688)">metadata</text>
  <text y="18.40039063" font-family="Helvetica, Segoe UI Emoji" font-size="20" fill="#1e1e1e" style="white-space:pre" dominant-baseline="alphabetic" transform="rotate(-24.075 753.95884257 -425.94279527)">read and write operations</text>
  <text y="18.40039063" font-family="Helvetica, Segoe UI Emoji" font-size="20" fill="#1e1e1e" style="white-space:pre" dominant-baseline="alphabetic" transform="rotate(23.962 -1156.66353022 825.32543382)">read and write operations</text>
</svg>
