<?xml version="1.0" encoding="UTF-8" standalone="no"?>
<!-- Created with Inkscape (http://www.inkscape.org/) -->

<svg
   width="2000"
   height="1000"
   viewBox="0 0 529.16665 264.58333"
   version="1.1"
   id="svg1"
   xml:space="preserve"
   sodipodi:docname="og-image.svg"
   inkscape:export-filename="og-image.png"
   inkscape:export-xdpi="72"
   inkscape:export-ydpi="72"
   inkscape:version="1.3 (0e150ed6c4, 2023-07-21)"
   xmlns:inkscape="http://www.inkscape.org/namespaces/inkscape"
   xmlns:sodipodi="http://sodipodi.sourceforge.net/DTD/sodipodi-0.dtd"
   xmlns="http://www.w3.org/2000/svg"
   xmlns:svg="http://www.w3.org/2000/svg"><sodipodi:namedview
     id="namedview1"
     pagecolor="#505050"
     bordercolor="#eeeeee"
     borderopacity="1"
     inkscape:showpageshadow="0"
     inkscape:pageopacity="0"
     inkscape:pagecheckerboard="0"
     inkscape:deskcolor="#505050"
     inkscape:document-units="px"
     inkscape:zoom="0.27594171"
     inkscape:cx="607.01226"
     inkscape:cy="269.98456"
     inkscape:window-width="2560"
     inkscape:window-height="1417"
     inkscape:window-x="-8"
     inkscape:window-y="233"
     inkscape:window-maximized="1"
     inkscape:current-layer="layer1" /><defs
     id="defs1" /><g
     inkscape:label="Layer 1"
     inkscape:groupmode="layer"
     id="layer1"><rect
       style="fill:#121416;stroke:none;stroke-width:1.36623;fill-opacity:1"
       id="rect2"
       width="527.80042"
       height="263.2171"
       x="0.68311483"
       y="0.68311483" /><rect
       style="display:none;fill:#121416;fill-opacity:1;stroke:#ffffff;stroke-width:1.1017"
       id="rect1"
       width="342.85663"
       height="263.48163"
       x="93.155014"
       y="0.55084956" /><g
       id="g2"
       transform="matrix(0.55813586,0,0,0.55813586,118.068,79.675024)"><path
         style="fill:none;fill-opacity:1;stroke:#bd63ee;stroke-width:11.1125;stroke-linecap:round;stroke-linejoin:round;stroke-miterlimit:4;stroke-dasharray:none;stroke-opacity:1"
         d="M 122.37136,34.925 53.843229,153.6192"
         id="path3" /><path
         style="fill:none;fill-opacity:1;stroke:#6262ee;stroke-width:11.1125;stroke-linecap:round;stroke-linejoin:round;stroke-miterlimit:4;stroke-dasharray:none;stroke-opacity:1"
         d="M 53.843231,34.924999 122.37136,153.6192"
         id="path2" /><path
         style="fill:none;fill-opacity:1;stroke:#26bbd9;stroke-width:11.1125;stroke-linecap:round;stroke-linejoin:round;stroke-miterlimit:4;stroke-dasharray:none;stroke-opacity:1"
         d="M 19.579166,94.272101 H 156.63543"
         id="path847" /></g><g
       id="g12"
       transform="translate(2.1822359)"><g
         id="g3"
         transform="matrix(0.74695144,0,0,0.74695144,236.22308,88.221529)"><path
           class="st0"
           d="M 91.8,15.6 C 80.9,-0.1 59.2,-4.7 43.6,5.2 L 16.1,22.8 C 8.6,27.5 3.4,35.2 1.9,43.9 0.6,51.2 1.7,58.7 5.2,65.2 2.8,68.8 1.2,72.8 0.5,77 c -1.6,8.9 0.5,18.1 5.7,25.4 11,15.7 32.6,20.3 48.2,10.4 L 81.9,95.3 c 7.5,-4.7 12.7,-12.4 14.2,-21.1 1.3,-7.3 0.2,-14.8 -3.3,-21.3 2.4,-3.6 4,-7.6 4.7,-11.8 1.7,-9 -0.4,-18.2 -5.7,-25.5"
           id="path1-6" /><path
           class="st1"
           d="M 40.9,103.9 C 32,106.2 22.7,102.7 17.5,95.2 14.3,90.8 13.1,85.3 14,79.9 14.2,79 14.4,78.2 14.6,77.3 l 0.5,-1.6 1.4,1 c 3.3,2.4 6.9,4.2 10.8,5.4 l 1,0.3 -0.1,1 c -0.1,1.4 0.3,2.9 1.1,4.1 1.6,2.3 4.4,3.4 7.1,2.7 0.6,-0.2 1.2,-0.4 1.7,-0.7 L 65.5,72 c 1.4,-0.9 2.3,-2.2 2.6,-3.8 0.3,-1.6 -0.1,-3.3 -1,-4.6 -1.6,-2.3 -4.4,-3.3 -7.1,-2.6 -0.6,0.2 -1.2,0.4 -1.7,0.7 l -10.5,6.7 c -1.7,1.1 -3.6,1.9 -5.6,2.4 C 33.3,73.1 24,69.6 18.8,62.1 15.7,57.7 14.4,52.2 15.4,46.8 16.3,41.6 19.5,36.9 24,34.1 L 51.5,16.6 c 1.7,-1.1 3.6,-1.9 5.6,-2.5 8.9,-2.3 18.2,1.2 23.4,8.7 3.2,4.4 4.4,9.9 3.5,15.3 -0.2,0.9 -0.4,1.7 -0.7,2.6 l -0.5,1.6 -1.4,-1 C 78.1,38.9 74.5,37.1 70.6,35.9 l -1,-0.3 0.1,-1 c 0.1,-1.4 -0.3,-2.9 -1.1,-4.1 -1.6,-2.3 -4.4,-3.3 -7.1,-2.6 -0.6,0.2 -1.2,0.4 -1.7,0.7 L 32.4,46.1 c -1.4,0.9 -2.3,2.2 -2.6,3.8 -0.3,1.6 0.1,3.3 1,4.6 1.6,2.3 4.4,3.3 7.1,2.6 0.6,-0.2 1.2,-0.4 1.7,-0.7 l 10.5,-6.7 c 1.7,-1.1 3.6,-1.9 5.6,-2.5 8.9,-2.3 18.2,1.2 23.4,8.7 3.2,4.4 4.4,9.9 3.5,15.3 -0.9,5.2 -4.1,9.9 -8.6,12.7 l -27.5,17.5 c -1.7,1.1 -3.6,1.9 -5.6,2.5"
           id="path2-2" /></g></g><g
       id="g11"
       transform="matrix(1.1249337,0,0,1.1249337,-27.108643,-16.527678)"
       style="fill:#e7d748;fill-opacity:1"><g
         style="fill:#e7d748;fill-opacity:1"
         id="g10"
         transform="matrix(0.31213314,0,0,0.31213314,315.16336,92.338622)"><path
           d="m 215.79,118.17 a 8,8 0 0 0 -5,-5.66 L 153.18,90.9 167.84,17.57 a 8,8 0 0 0 -13.69,-7 l -112,120 a 8,8 0 0 0 3,13 l 57.63,21.61 -14.62,73.25 a 8,8 0 0 0 13.69,7 l 112,-120 a 8,8 0 0 0 1.94,-7.26 z M 109.37,214 119.84,161.62 a 8,8 0 0 0 -5,-9.06 L 62,132.71 146.62,42.05 136.16,94.43 a 8,8 0 0 0 5,9.06 l 52.8,19.8 z"
           id="path1-67"
           style="fill:#e7d748;fill-opacity:1" /></g><path
         style="fill:#e7d748;fill-opacity:1;stroke:none;stroke-width:1.00012"
         d="m 361.70739,103.0068 -29.10946,30.93479 18.11373,9.14363 -3.38788,18.68669 29.93903,-31.54966 -16.12106,-6.9593 z"
         id="path10"
         sodipodi:nodetypes="ccccccc" /></g></g><style
     type="text/css"
     id="style1">&#10;	.st0{fill:#FF3E00;}&#10;	.st1{fill:#FFFFFF;}&#10;</style></svg>
